<svg xmlns="http://www.w3.org/2000/svg" viewBox="0 0 1179.7 1000"><defs><style>.cls-1{isolation:isolate;}.cls-2{fill:#e1e1ff;}.cls-3{fill:#b0b0ff;}.cls-4{fill:#8888ea;}.cls-5{fill:#fff0f2;}.cls-6{fill:#fff;}.cls-7{fill:#ffa50a;}.cls-8{fill:#fab9af;}.cls-9{fill:#5046af;}.cls-10{fill:#41378c;}.cls-11{fill:#6469d4;}.cls-12{fill:#5159bf;}.cls-13{fill:#fa968c;}.cls-14{fill:#827ddc;}.cls-15{opacity:0.21;}.cls-15,.cls-17{mix-blend-mode:overlay;}.cls-16{fill:#928deb;}.cls-17{opacity:0.39;}.cls-18{fill:#d2f0ff;}.cls-19{fill:#9797ef;}.cls-20{fill:#afe6ff;}.cls-21{fill:#6e64c3;}.cls-22,.cls-23{fill:none;stroke-miterlimit:10;stroke-width:2.96px;}.cls-22{stroke:#41378c;}.cls-23{stroke:#5046af;stroke-linecap:round;}</style></defs><title>yns-rocket-illustration</title><g class="cls-1"><g id="Layer_1" data-name="Layer 1"><path class="cls-2" d="M829.32,259.21c-3,0-10.7-.53-21.38-1.2a599,599,0,0,1-218.08-56.08c-57.39-27-133.88-38.46-175.27-28.2l-.39.1c-15.16,3.78-30.29-4.62-34.46-18.81C369.9,121.5,322.29,97.71,272,97.71c-60.38,0-109.34,31.74-109.34,70.9,0,16.52,8.82,31.73,23.46,43.8,41.69,34.36,64.53,84.3,59.44,136.12a128.81,128.81,0,0,0,2.28,40.73,108.82,108.82,0,0,0,5.92,18.59c16,38,78.5,84.93,82.33,120.53,29.35,273.1,105.85,372.4,386,411.2s531.31-82.06,560.9-269.94S1264.53,264.7,829.32,259.21Z" transform="translate(-110.38 -40)"/><path class="cls-2" d="M483,60.62a25,25,0,0,1-15.09-7.08C459.48,45.29,446.54,40,432,40c-25.25,0-45.71,16-45.71,35.67s20.46,35.67,45.71,35.67c12.45,0,23.71-3.89,31.95-10.18,4.1-3.14,9.47-4.09,14.74-3.55,11.12,1.13,21.9-6.94,21.9-18.5C500.59,69.51,492.75,61.58,483,60.62Z" transform="translate(-110.38 -40)"/><path class="cls-2" d="M541.12,129.77c0,5.59-6.65,10.11-14.86,10.11s-14.86-4.52-14.86-10.11,6.65-10.1,14.86-10.1S541.12,124.19,541.12,129.77Z" transform="translate(-110.38 -40)"/><path class="cls-2" d="M1115.43,246.9c0,9.85-14.07,17.83-31.43,17.83s-31.43-8-31.43-17.83,14.07-17.84,31.43-17.84S1115.43,237.05,1115.43,246.9Z" transform="translate(-110.38 -40)"/><path class="cls-2" d="M1142.79,215.09c0,5-4.3,9-9.61,9s-9.62-4-9.62-9,4.3-9,9.62-9S1142.79,210.11,1142.79,215.09Z" transform="translate(-110.38 -40)"/><path class="cls-2" d="M228.77,752.63c-2.84-19.73-7.28-51-27.87-75.2-32.11-37.83-90.06-44.67-90.06-44.67s-6.11,54.66,26.24,92.31c17.71,20.61,54.61,35.45,75.26,41.66,8.83,2.66,14.79,10.39,14.65,19.08-2,131.46-23.66,194.34-23.66,194.34L224,977.91C241.81,835.67,232.72,780,228.77,752.63Z" transform="translate(-110.38 -40)"/><path class="cls-2" d="M287.81,730.38c5.55-16.25,14.3-42,35.56-59.57,33.17-27.41,83.19-25,83.19-25s-3.59,47-36.93,74.25c-18.24,14.9-51.78,22.24-70.21,24.58-7.87,1-14.15,6.69-15.42,14-19.34,111.28-11.13,167.41-11.13,167.41l-17.13-4.81C263.51,798.66,280.09,752.94,287.81,730.38Z" transform="translate(-110.38 -40)"/><path class="cls-3" d="M259.27,645c4.53-19.62,11.65-50.7,34.41-73.54,35.51-35.64,94.36-38.2,94.36-38.2s1.5,55.43-34.22,90.87c-19.56,19.4-57.93,31.57-79.22,36.28-9.11,2-15.76,9.33-16.36,18.08-9.13,132.36,2.6,240.09,2.6,240.09l-20.64-3.8C234.41,770.4,253,672.2,259.27,645Z" transform="translate(-110.38 -40)"/><path class="cls-3" d="M214.76,854.18a63.37,63.37,0,0,0-12.19-27.58A47.34,47.34,0,0,0,192,816.41c-17.86-12-42.66-8.12-42.66-8.12s4.16,23.25,22,35.21c10.5,7,23.38,8.61,32.21,8.71,5.42.06,9.8,4.16,9.68,9.24-.61,26.92-6.35,63.33-6.35,63.33L218.12,923C221.53,897.41,217.54,869.15,214.76,854.18Z" transform="translate(-110.38 -40)"/><path class="cls-3" d="M323.43,772.24s-23.17,9.15-31.46,28.2c-4.58,10.51-2.21,26.7-1.06,32.83a16.75,16.75,0,0,1,.18,5.19l-8.67,71.17h13.89a281.35,281.35,0,0,1-1-61.06A17.47,17.47,0,0,1,303,835.73c7-4.75,17.62-13.11,21.8-22.7C333.14,794,323.43,772.24,323.43,772.24Z" transform="translate(-110.38 -40)"/><path class="cls-4" d="M223,1027.24h55a11.19,11.19,0,0,0,5.1-1.17c21.34-10.87,35.87-32,35.87-56.39V919.85c0-5.65-4.88-10.22-10.89-10.22H192.93c-6,0-10.89,4.57-10.89,10.22v49.83c0,24.38,14.52,45.52,35.87,56.39A11.16,11.16,0,0,0,223,1027.24Z" transform="translate(-110.38 -40)"/><rect class="cls-2" x="71.66" y="898.67" width="136.96" height="30.51"/><rect class="cls-5" x="71.66" y="898.67" width="136.96" height="7.33"/><polygon class="cls-6" points="439.37 353.94 429.66 352.23 467.9 161.1 477.61 162.81 439.37 353.94"/><path class="cls-7" d="M708.26,272.46c-41.83-25.37-96.29,12.35-137.12-18a5.81,5.81,0,0,1-2.38-5.77l15.07-75.31c.83-4.14,5.86-6.07,9.64-3.78,41.83,25.38,96.29-12.34,137.12,18a5.79,5.79,0,0,1,2.38,5.77Q725.43,231,717.9,268.68C717.07,272.83,712,274.75,708.26,272.46Z" transform="translate(-110.38 -40)"/><path class="cls-8" d="M558.12,347.79a7.19,7.19,0,0,0-3.66,4.15,3.5,3.5,0,0,0-.18,1.75,4.4,4.4,0,0,1-1.48,3.75,8.19,8.19,0,0,0-2.14,3.15,12.13,12.13,0,0,0-.59,6.69,10.57,10.57,0,0,1,.12,5.24,4.39,4.39,0,0,0,.46,3.17,5.15,5.15,0,0,0,6.74,2A4.61,4.61,0,0,0,560,373.3a3.48,3.48,0,0,1,.87-2.49,1.44,1.44,0,0,0,.22-.31,4.71,4.71,0,0,0,.78-3.45,3.31,3.31,0,0,1,1.25-3.32,6.69,6.69,0,0,0,2.48-3.52,4.86,4.86,0,0,0,.16-2.56,3.36,3.36,0,0,1,1.2-3.34,3.71,3.71,0,0,0,1.48-3.47C567.93,347.34,560.84,346.35,558.12,347.79Z" transform="translate(-110.38 -40)"/><path class="cls-8" d="M528.83,360.64l0-.08a25.12,25.12,0,0,1,3.85-5.29l5.35-5.62c3.91-3.43,6-6.39,10.46-6.85,7.39-.74,17.77-1.11,18.1,2.57s-9.38,5.85-14.93,6.54a4.39,4.39,0,0,0-3.79,3.22s2.73,20.56-8.77,21.35l-2.79,7.46-13.63-2.09,2.88-12.66A33.27,33.27,0,0,1,528.83,360.64Z" transform="translate(-110.38 -40)"/><path class="cls-9" d="M412.9,455.89s-31.38-12-43,7.23,5.6,70.17-36.18,77.1-46.26,46.22-42.94,63.4c9.56,49.56,86,99.1,138.88,46.73S416.91,562.56,412,536.13,440,474.57,412.9,455.89Z" transform="translate(-110.38 -40)"/><path class="cls-10" d="M435.52,547.15c-.23-20.3,43.24-41.68-2.07-83a3.75,3.75,0,0,0-4.79-.26c-3.75,2.9-15.72,4.26-21.76,9.28-11.3,9.42-28.91,35.41-23.33,48.58,11.91,28.11-8.16,51.78-9.77,83.47C372.51,637.71,429,670,456.43,661A27.8,27.8,0,0,0,474.7,643.2,22.29,22.29,0,0,0,473,624.59l-.05-.08C462.39,605.93,436.27,614.88,435.52,547.15Z" transform="translate(-110.38 -40)"/><path class="cls-8" d="M506.48,841c13.17-67.76,7.58-124.87,2.52-155-2.26-13.46-13.9-23.8-28.36-25.27h0c-20.77-1.81-38.62,14-37.46,33.54a210.23,210.23,0,0,0,4.22,30.39c9.58,45.76,26.11,265.59,26.24,265.65a15,15,0,0,1-.32,3.15,17.4,17.4,0,0,1-4,7c-3.49,4.51-1.35,7.58,5.83,12.89,6,4.45,2.87,12.25,9,13.17,8.48,1.26,14.25.67,15-1.27,1-2.77-1.38-3-8.56-6.43-5.49-2.61-6.16-18.59-6.21-24.79a27.7,27.7,0,0,1,.32-4.55Z" transform="translate(-110.38 -40)"/><path class="cls-8" d="M434.62,850.45C448.21,813,471.86,693.18,467.1,659.37l-32.31-2.53c-16.31-.69-31.09,9-35.81,23.7-7,21.88-13.78,58.75-7.47,112.47,0,0,4.87,29.2,0,48-4.42,17.06-29.85,123.15-34.49,142.52a63.27,63.27,0,0,1-2.57,6.34,16.24,16.24,0,0,1-5.21,5.6c-4.57,3.58-3.29,7,2.28,13.85,4.67,5.69-.42,12.52,5.28,14.82,7.89,3.18,13.63,3.93,14.84,2.22,1.73-2.45-.55-3.25-6.62-8.2-2.37-1.95-2.16-8.76-1.37-15A57.69,57.69,0,0,1,370,983.39C383.16,958.46,423.32,881.62,434.62,850.45Z" transform="translate(-110.38 -40)"/><path class="cls-11" d="M502.1,872q-56,13.63-118.22,0c3.56-14.67,6.4-26.25,7.63-31,4.87-18.78,0-48,0-48-6.31-53.72.43-90.59,7.47-112.47,4.72-14.66,19.5-24.39,35.81-23.7l32.31,2.53c0,.06,0,.13,0,.19l13.52,1.18c14.46,1.47,26.1,11.81,28.36,25.27,5.06,30.11,10.65,87.22-2.52,155Z" transform="translate(-110.38 -40)"/><path class="cls-12" d="M405.3,789.93c-4.14,9.1-8.07,18.38-11.65,27.79A187.6,187.6,0,0,0,391.51,793c-6.31-53.72.43-90.59,7.47-112.47,4.72-14.66,19.5-24.39,35.81-23.7l11.73.92h0l20.57,1.61c0,.06,0,.13,0,.19l13.52,1.18c14.46,1.47,26.1,11.81,28.36,25.27.82,4.85,1.64,10.46,2.4,16.64C458,700.78,424.86,746.94,405.3,789.93Z" transform="translate(-110.38 -40)"/><path class="cls-3" d="M529.26,466.13c4.9-23.47,9.89-84.65,9.89-84.65-2.52-3.31-13.12-7.37-16.42-3.29l-20.63,83.7c-22.31,26.41-40.6,50.51-49.21,62.1a19.92,19.92,0,0,1-14.42,7.81c-10.86.9-24.65,2.34-36,5.09-55,13.35-32.43,32.38-32.43,32.38A76.31,76.31,0,0,1,386.48,591c7,14.09,16.1,32.16,21.41,42.79,2.21,6.73-4.36,26.57-6.7,33.26l-4.88,14a4,4,0,0,0,2.64,5.08c24.78,8,74.67,9.25,106.57-.29a5.5,5.5,0,0,0,3.5-8l-23.63-60.39c-6.28-12.74-5.11-15.83-.68-23.33a17.45,17.45,0,0,0,1.75-13.89c-.82-2.75-3.19-7.08-6.31-11.82a18,18,0,0,1,1.52-21.92C499.91,525.66,524.68,488,529.26,466.13Z" transform="translate(-110.38 -40)"/><path class="cls-8" d="M397.69,460.49c-16.46,4.29-19.34,16.88-13.63,37.28,2.13,7.65,8,14.24,12.38,18.29a15.16,15.16,0,0,1,5,11.36l-.22,12.42c.7,11.28,7.82,15.71,16.4,15.76a16.49,16.49,0,0,0,11.56-5c3.36-3.54,2.11-9,0-13.28l-1.91-3a8.16,8.16,0,0,1,3.22-11.74,32.59,32.59,0,0,0,9.29-6.71c2.17-2.41,3.48-20.41-5.3-39.09C425.46,457.43,414.16,456.2,397.69,460.49Z" transform="translate(-110.38 -40)"/><path class="cls-13" d="M435,500.25a3.63,3.63,0,0,1-2.7,5.13h0a3.94,3.94,0,0,1-4.62-2.57l-3.65-15.23a2.06,2.06,0,0,1,.3-1.65,2.39,2.39,0,0,1,1.47-1,1.93,1.93,0,0,1,2.12,1Z" transform="translate(-110.38 -40)"/><path class="cls-8" d="M392.81,499c1.4,4.71,3,10.66-1.37,11.81s-11.39-6.28-12.78-11,1.09-6.61,5.5-7.76S391.42,494.31,392.81,499Z" transform="translate(-110.38 -40)"/><path class="cls-9" d="M376,475.66c13.3-24.17,41.84-32,56.3-23.77,7.77,4.44,18.61,23.46,1.34,24.1a21.3,21.3,0,0,1-11.81-3.35,6,6,0,0,0-4-.74l-11.24,3.62c-9.23,3-14.19,12.38-11.12,21.07l1.11,3.12a2,2,0,0,1-2.85,2.2l-.66-1.17a13,13,0,0,0-8.32-6.11C377.25,492.83,368,490.16,376,475.66Z" transform="translate(-110.38 -40)"/><path class="cls-8" d="M401.89,765.67c-2.68-3.76-4.92-7.81-6.15-9.2a25.51,25.51,0,0,0-2.89-2.11c-1.52-1.09-4.05-2.55-4.72-4.23l-2.94-7c-1.36-3.41-4.15-5.38-7.79-4.1h0c-3.94,1.38-4.46,5.16-2.54,8.67l2,4.93c1.54,2.81,1.58,6,1.78,9.14.42,6.41,4.7,12.65,8.63,17.36,2.47,3,7.84,3.4,15,3.63,3.52.11,9-.7,5.69-3.45-2.8-2.31-13.64-3.33-14.53-13.38-.05-.49-.06-1.76.54-2,1.79-.68,3.62,3,5.23,4.5,2.24,2.15,4.59,2.52,5.66,1.83S403.8,768.35,401.89,765.67Z" transform="translate(-110.38 -40)"/><path class="cls-14" d="M662.54,723.47l-56.32,44.06c-25.63,20.05-40.45,49.73-40.45,81v178.67h0c21.75,0,39.38-16.53,39.38-36.93V969.47c0-46,21.71-89.55,59.29-119.05l52-40.81Z" transform="translate(-110.38 -40)"/><path class="cls-14" d="M864.31,723.47l56.33,44.06c25.63,20.05,40.44,49.73,40.44,81v178.67h0c-21.75,0-39.38-16.53-39.38-36.93V969.47c0-46-21.71-89.55-59.29-119.05l-52-40.81Z" transform="translate(-110.38 -40)"/><path class="cls-15" d="M864.31,723.47l56.33,44.06c25.63,20.05,40.44,49.73,40.44,81v178.67h0c-21.75,0-39.38-16.53-39.38-36.93V969.47c0-46-21.71-89.55-59.29-119.05l-52-40.81Z" transform="translate(-110.38 -40)"/><path class="cls-11" d="M836.4,935.2H691.82c-10.09,0-17.91-8.28-16.7-17.67L688,818.11H840.27l12.82,99.42C854.31,926.92,846.49,935.2,836.4,935.2Z" transform="translate(-110.38 -40)"/><path class="cls-11" d="M836.4,935.2H796.68V818.11h43.59l12.82,99.42C854.31,926.92,846.49,935.2,836.4,935.2Z" transform="translate(-110.38 -40)"/><path class="cls-6" d="M814.76,840.77c25.23,0,47-16.71,51.84-39.92,11.49-55,18.14-119.94,18.14-189.49,0-198.37-94.28-405.29-120.63-405.29-31.22,0-120.63,206.92-120.63,405.29,0,69.55,6.65,134.49,18.14,189.49,4.85,23.21,26.61,39.92,51.84,39.92Z" transform="translate(-110.38 -40)"/><path class="cls-6" d="M846.23,370.77c-29.25-96.08-67-164.7-82.12-164.7-18,0-55.24,68.62-83.63,164.7Z" transform="translate(-110.38 -40)"/><path class="cls-14" d="M838.38,346.22c-27.82-83-60.42-140.15-74.27-140.15-16.4,0-48.87,57.15-76,140.15Z" transform="translate(-110.38 -40)"/><path class="cls-16" d="M703.22,346.22h16.1c15-45.93,21.81-78.35,34.26-108.79,1-2.52-2.73-4.24-4.19-1.91C736.92,255.47,721.64,289.83,703.22,346.22Z" transform="translate(-110.38 -40)"/><path class="cls-17" d="M849.33,578.37c0,44.57-38.54,80.71-86.08,80.71s-86.08-36.14-86.08-80.71,38.53-80.71,86.08-80.71S849.33,533.79,849.33,578.37Z" transform="translate(-110.38 -40)"/><path class="cls-14" d="M849.33,569.87c0,44.58-38.54,80.72-86.08,80.72s-86.08-36.14-86.08-80.72,38.53-80.71,86.08-80.71S849.33,525.3,849.33,569.87Z" transform="translate(-110.38 -40)"/><path class="cls-15" d="M763.25,489.16l-.92,0V650.56c.31,0,.61,0,.92,0,47.54,0,86.08-36.14,86.08-80.72S810.79,489.16,763.25,489.16Z" transform="translate(-110.38 -40)"/><path class="cls-18" d="M822.14,569.87c0,30.5-26.37,55.23-58.89,55.23s-58.9-24.73-58.9-55.23,26.37-55.22,58.9-55.22S822.14,539.37,822.14,569.87Z" transform="translate(-110.38 -40)"/><path class="cls-3" d="M580.19,895.2h147a0,0,0,0,1,0,0v35.74a4.38,4.38,0,0,1-4.38,4.38H584.57a4.38,4.38,0,0,1-4.38-4.38V895.2A0,0,0,0,1,580.19,895.2Z"/><path class="cls-19" d="M695.45,895.2h31.73a0,0,0,0,1,0,0v35.74a4.38,4.38,0,0,1-4.38,4.38H695.45a0,0,0,0,1,0,0V895.2A0,0,0,0,1,695.45,895.2Z"/><path class="cls-14" d="M765,1026.22l-.9,1h0a51.67,51.67,0,0,1-14.56-34l-7.91-233.58c-.59-17.39,7.75-34,22.42-44.64l.05,0h0c14.7,10.67,23,27.31,22.42,44.73l-8.34,234.1A51.51,51.51,0,0,1,765,1026.22Z" transform="translate(-110.38 -40)"/><path class="cls-15" d="M765,1026.22l-.9,1h0L764.06,715l.05,0h0c14.7,10.67,23,27.31,22.42,44.73l-8.34,234.1A51.51,51.51,0,0,1,765,1026.22Z" transform="translate(-110.38 -40)"/><path class="cls-20" d="M795.87,523.91c0,1.08.09,2.17.09,3.27,0,39.48-34.14,71.49-76.24,71.49-2.32,0-4.6-.12-6.86-.31,10.32,16,29,26.74,50.39,26.74,32.52,0,58.89-24.73,58.89-55.23C822.14,550.69,811.7,533.8,795.87,523.91Z" transform="translate(-110.38 -40)"/><path class="cls-3" d="M371,549.93c5.29-5.1,18.21-6.6,30-4.31,11.13,2.16-12.91,75.18-35.34,109.54a14.73,14.73,0,0,0-1.91,12.35l23.88,79.35c-2.87,5.44-8.18,6.35-13.59,7.08L333.84,671.1a35.38,35.38,0,0,1-2.35-24.9C338.44,620.73,355,565.43,371,549.93Z" transform="translate(-110.38 -40)"/><path class="cls-8" d="M1076.32,977.19l6.34,23.31a9,9,0,0,0,1.24,2.46l4.5,6.25c2.85,4,.8,9.41-4.09,10.81,0,0-9.06,3-18.41,5.87-9.57,2.94-21.6.48-21.6-1.88,0-5.26,5.23-1.09,14-6.58,2.94-1.84,6-3.77,8.67-5.76,7.54-5.54,1-19.59-3.66-27.5-1.66-2.85.1-9.95,3.48-10.62l2.19-.44A6.35,6.35,0,0,1,1076.32,977.19Z" transform="translate(-110.38 -40)"/><path class="cls-8" d="M1070.66,777.48c-1.83-4.31-3.15-8.81-4.06-10.45a24.59,24.59,0,0,0-2.42-2.69c-1.27-1.4-3.47-3.37-3.76-5.19l-1.36-7.61c-.58-3.69-2.93-6.22-6.87-5.67h0c-4.26.6-5.65,4.28-4.52,8.18l.85,5.34c.9,3.12.21,6.32-.3,9.52-1,6.51,1.82,13.62,4.69,19.12,1.8,3.45,7.08,5,14.22,6.66,3.51.81,9.21,1.11,6.49-2.32-2.28-2.88-12.91-6.07-11.51-16.32.07-.51.34-1.79,1-1.9,1.94-.33,3,3.7,4.21,5.56,1.76,2.6,4,3.44,5.26,3S1072,780.56,1070.66,777.48Z" transform="translate(-110.38 -40)"/><path class="cls-3" d="M1092.92,539.78c-11.24,33.2-40.09,95.35-82.1,117.4C982.08,672.27,912.93,694,912.93,694a42.61,42.61,0,0,1-3.77-5.09,30.73,30.73,0,0,1-2.51-5.76s86.09-41.4,97.63-53.4,50.07-88.54,61.59-100.53C1079.32,515.24,1099.21,521.18,1092.92,539.78Z" transform="translate(-110.38 -40)"/><polygon class="cls-8" points="945.09 660.46 972.32 481.06 1045.79 471.61 1083.99 659.17 945.09 660.46"/><path class="cls-8" d="M1213.21,972.78l7.43,23.13a10.43,10.43,0,0,0,1.46,2.88l5.27,7.33c3.34,4.66.94,11-4.79,12.66,0,0-10.62,3.5-21.57,6.88-11.21,3.45-25.31.56-25.31-2.21,0-6.16,6.13-1.27,16.39-7.71,3.44-2.15,7-4.41,10.15-6.74,8.83-6.5,1.12-23-4.28-32.22-2-3.34.11-7.47,4.08-8.27l2.56-.51A7.45,7.45,0,0,1,1213.21,972.78Z" transform="translate(-110.38 -40)"/><path class="cls-9" d="M1137.31,702.2l-81.41-6.41s-28.81,96.93-36.45,140c-5.54,31.18,44.82,151.7,44.82,151.7,5,2,9.82-.55,15-1.76,0,0-15.29-106.46-10.09-132.37,5.43-27,48.88-81.82,51.67-96.18A314.82,314.82,0,0,1,1137.31,702.2Z" transform="translate(-110.38 -40)"/><path class="cls-9" d="M1120.51,703.17c-8.41,42.29-27.19,105.53,9,165s74.16,121.18,74.16,121.18a21.45,21.45,0,0,0,13.45-4.42s-6.34-26.93-15.51-58.38c-10.49-36-23.77-78.3-20-100.36,7.09-41.36,15.24-96.43,12.77-123.17S1124.92,680.93,1120.51,703.17Z" transform="translate(-110.38 -40)"/><path class="cls-18" d="M1056.6,703a6.61,6.61,0,0,1-3.94-7.12l30-174.84,73.47-9.45,39.48,184.61a6.37,6.37,0,0,1-5.36,7.5,500.82,500.82,0,0,1-83.6,7.51C1079.13,711.22,1063.64,706.2,1056.6,703Z" transform="translate(-110.38 -40)"/><path class="cls-3" d="M1139.66,557.9c9,22.72,23.2,67.6,15,107-11.53,55.55-26.34,78-7.14,91s56-8.66,57.1-15.86-7.17-95.66-16.5-134-35.45-93.43-35.45-93.43l-13.63,1.15S1135.39,547.07,1139.66,557.9Z" transform="translate(-110.38 -40)"/><path class="cls-3" d="M1095.59,519.4s-5.7,24.92-1.25,62,14.74,150.05-21.26,167.11c-11.4,5.4-37.43-22.44-37.43-27.39,0-8.88,8.68-38.58,16.92-65.59,6.61-21.69,13.3-94.18,15.67-121.86.54-6.37,5.73-11.49,12.48-12.36Z" transform="translate(-110.38 -40)"/><path class="cls-10" d="M1148.81,443.57s-1.39,10.38,5.28,18-3,14.66-5.28,19.83.53,12.84-5.79,16.34-24.38,4.44-27.25-1.73S1128.44,440,1148.81,443.57Z" transform="translate(-110.38 -40)"/><path class="cls-10" d="M1076.1,457.24c-1,33.95,32.72,40.47,52.32,40.47s20.39-40.7,20.39-55.36-15.4-17-35-17c-15.44,0-30,11.21-36.07,22C1076.12,450.24,1076.19,454.13,1076.1,457.24Z" transform="translate(-110.38 -40)"/><path class="cls-8" d="M1112.89,438.48c16.4,0,22.51,10.94,22.83,31.19.11,7.58-3.52,15.09-6.45,19.88a14.19,14.19,0,0,0-1.53,11.72l3.6,11.43c2.45,10.6-2.92,16.41-10.85,18.52a16.22,16.22,0,0,1-12-1.84c-4.08-2.47-4.42-7.78-3.66-12.27l.93-3.26a8.07,8.07,0,0,0-6.19-10.09c-12.63-2.59-14.44-14.93-17.82-34.09C1078.18,449.69,1096.49,438.48,1112.89,438.48Z" transform="translate(-110.38 -40)"/><path class="cls-10" d="M1074.71,429.59l9.4,2.68a19.8,19.8,0,0,0,10.61.06l18.77-5.1c11.38,0,30.16,6,27.78,21.4l-2.09,10.88a10.21,10.21,0,0,1-9.4,8h0a3.64,3.64,0,0,1-3.55,2.55,3.58,3.58,0,0,1-3.68-3.45h0a10.63,10.63,0,0,0-8.78-10.17,43.73,43.73,0,0,0-20,.13c-13,3.29-26.8-4.29-28.1-16.9a21.72,21.72,0,0,1-.13-2.43C1065.58,432.13,1070.06,428.39,1074.71,429.59Z" transform="translate(-110.38 -40)"/><path class="cls-8" d="M1126.68,470c0,4.69,1.86,8.5,6.68,8.5s7.91-6.46,7.91-11.15-3.09-5.85-7.91-5.85S1126.68,465.35,1126.68,470Z" transform="translate(-110.38 -40)"/><path class="cls-13" d="M1086.54,484.07a3.58,3.58,0,0,0,3.67,4.27h0A3.65,3.65,0,0,0,1094,485l0-15a2,2,0,0,0-.66-1.49,2.34,2.34,0,0,0-1.59-.62,1.79,1.79,0,0,0-1.76,1.34Z" transform="translate(-110.38 -40)"/><path class="cls-20" d="M1120.24,546.35a2.21,2.21,0,0,1,2.13,1.46c2.53,7.54,14,42.29,16.51,61,2.08,15.27-4.5,42.15-8.29,55.81a21.31,21.31,0,0,1-10.36,12.86l-2.58,1.43a4.75,4.75,0,0,1-6.29-1.55l-2.1-3.41a9.34,9.34,0,0,1-.73-8.48c4.44-10.83,15.34-39.6,14.41-58.7-.33-6.72-7.27-47.61-9.06-58a2.14,2.14,0,0,1,2.21-2.41Z" transform="translate(-110.38 -40)"/><path class="cls-12" d="M1117.73,541.29a2.2,2.2,0,0,1,2.09,1.5c2.35,7.59,12.94,42.57,15,61.35,1.72,15.31-5.51,42-9.63,55.63a21.39,21.39,0,0,1-10.67,12.63l-2.61,1.38a4.75,4.75,0,0,1-6.25-1.68l-2-3.46a9.31,9.31,0,0,1-.52-8.49c4.7-10.74,16.28-39.27,15.81-58.38-.17-6.73-6.12-47.76-7.66-58.2a2.15,2.15,0,0,1,2.26-2.37Z" transform="translate(-110.38 -40)"/><path class="cls-12" d="M1111.62,542.33h7.06a2.09,2.09,0,0,0,2.15-2V533.7a2.08,2.08,0,0,0-2.15-2l-6.37-.64a3.4,3.4,0,0,0-2.84,2.66v6.61A2.1,2.1,0,0,0,1111.62,542.33Z" transform="translate(-110.38 -40)"/><path class="cls-6" d="M1130.89,511.29l11.9,1.95s-2.36,18-11.86,31.5a1.85,1.85,0,0,1-2.91,0l-8.45-11a3.73,3.73,0,0,1-.2-4.3Z" transform="translate(-110.38 -40)"/><path class="cls-6" d="M1105.05,516.05l-11.9,3.67s-.38,11.13,8.79,23.95a1.81,1.81,0,0,0,2.9,0l6.9-10.06a3.78,3.78,0,0,0,.26-3.89Z" transform="translate(-110.38 -40)"/><path class="cls-21" d="M1127.86,654.73V631.46c0-5.39-4.67-9.76-10.41-9.76h-7.72a11.49,11.49,0,0,1-10.9-7.25,85.49,85.49,0,0,0-4.26-9.64,10.3,10.3,0,0,1,2.23-12.37l5.46-5.12a9.35,9.35,0,0,0,0-13.81l-17.55-16.45a10.91,10.91,0,0,0-14.72,0l-5.47,5.12a12.11,12.11,0,0,1-13.19,2.09,96.43,96.43,0,0,0-10.28-4,10.88,10.88,0,0,1-7.74-10.22v-7.23c0-5.4-4.66-9.77-10.4-9.77H998.09c-5.76,0-10.42,4.37-10.42,9.77v7.23a10.87,10.87,0,0,1-7.73,10.22,97.26,97.26,0,0,0-10.28,4,12.11,12.11,0,0,1-13.19-2.09L951,557.06a10.92,10.92,0,0,0-14.73,0l-17.55,16.45a9.35,9.35,0,0,0,0,13.81l5.46,5.12a10.31,10.31,0,0,1,2.23,12.37,85.49,85.49,0,0,0-4.26,9.64,11.5,11.5,0,0,1-10.9,7.25h-7.72c-5.75,0-10.41,4.37-10.41,9.76v23.27c0,5.39,4.66,9.76,10.41,9.76h7.72a11.5,11.5,0,0,1,10.9,7.25,84.7,84.7,0,0,0,4.26,9.64,10.32,10.32,0,0,1-2.23,12.38l-5.46,5.12a9.34,9.34,0,0,0,0,13.8l17.55,16.46a10.92,10.92,0,0,0,14.73,0l5.46-5.12a12.11,12.11,0,0,1,13.19-2.1,95.14,95.14,0,0,0,10.28,4,10.88,10.88,0,0,1,7.73,10.22v7.24c0,5.39,4.66,9.76,10.42,9.76h24.82c5.74,0,10.4-4.37,10.4-9.76v-7.24a10.89,10.89,0,0,1,7.74-10.22,94.34,94.34,0,0,0,10.28-4,12.11,12.11,0,0,1,13.19,2.1l5.47,5.12a10.91,10.91,0,0,0,14.72,0l17.55-16.46a9.34,9.34,0,0,0,0-13.8l-5.46-5.12a10.31,10.31,0,0,1-2.23-12.38,84.7,84.7,0,0,0,4.26-9.64,11.49,11.49,0,0,1,10.9-7.25h7.72C1123.19,664.49,1127.86,660.12,1127.86,654.73Zm-112.78,41.18c-34.82,2.57-63.66-24.46-60.91-57.11,2.16-25.69,24.35-46.49,51.74-48.52,34.82-2.57,63.66,24.47,60.91,57.12C1064.66,673.08,1042.47,693.89,1015.08,695.91Z" transform="translate(-110.38 -40)"/><path class="cls-14" d="M1162.6,658.18V628c0-7-6-12.65-13.5-12.65h-10A14.9,14.9,0,0,1,1125,606a108,108,0,0,0-5.53-12.49,13.38,13.38,0,0,1,2.89-16l7.08-6.63a12.1,12.1,0,0,0,0-17.89l-22.74-21.33a14.15,14.15,0,0,0-19.09,0l-7.07,6.63a15.68,15.68,0,0,1-17.11,2.71,124.92,124.92,0,0,0-13.32-5.17,14.09,14.09,0,0,1-10-13.25v-9.38c0-7-6-12.65-13.5-12.65H994.41c-7.45,0-13.49,5.67-13.49,12.65v9.38a14.09,14.09,0,0,1-10,13.25,125.93,125.93,0,0,0-13.33,5.17,15.67,15.67,0,0,1-17.1-2.71l-7.07-6.63a14.15,14.15,0,0,0-19.09,0l-22.74,21.33a12.1,12.1,0,0,0,0,17.89l7.08,6.63a13.4,13.4,0,0,1,2.89,16A109.69,109.69,0,0,0,896,606a14.89,14.89,0,0,1-14.12,9.4h-10c-7.46,0-13.5,5.66-13.5,12.65v30.16c0,7,6,12.65,13.5,12.65h10A14.9,14.9,0,0,1,896,680.22a108.91,108.91,0,0,0,5.53,12.49,13.4,13.4,0,0,1-2.89,16l-7.08,6.64a12.1,12.1,0,0,0,0,17.89l22.74,21.32a14.15,14.15,0,0,0,19.09,0l7.07-6.63a15.67,15.67,0,0,1,17.1-2.71,126,126,0,0,0,13.33,5.18,14.09,14.09,0,0,1,10,13.24v9.38c0,7,6,12.65,13.49,12.65h32.16c7.46,0,13.5-5.66,13.5-12.65v-9.38a14.09,14.09,0,0,1,10-13.24,125,125,0,0,0,13.32-5.18,15.68,15.68,0,0,1,17.11,2.71l7.07,6.63a14.15,14.15,0,0,0,19.09,0l22.74-21.32a12.1,12.1,0,0,0,0-17.89l-7.08-6.64a13.38,13.38,0,0,1-2.89-16,107.2,107.2,0,0,0,5.53-12.49,14.9,14.9,0,0,1,14.13-9.39h10C1156.56,670.83,1162.6,665.16,1162.6,658.18Zm-146.16,53.36c-45.13,3.34-82.51-31.71-79-74,2.8-33.28,31.56-60.25,67.06-62.87,45.13-3.33,82.5,31.71,78.94,74C1080.69,682,1051.93,708.92,1016.44,711.54Z" transform="translate(-110.38 -40)"/><ellipse class="cls-22" cx="900.11" cy="603.1" rx="97.64" ry="91.55"/><path class="cls-23" d="M912.85,643.1c0-50.57,43.72-91.56,97.65-91.56" transform="translate(-110.38 -40)"/><path class="cls-8" d="M1012.54,551.91a6,6,0,0,0,1-8.55l-2.55-3.2c-3-3.71-5.17-8-5-12.62.09-3.16-2.11-12-5.59-11.49-3,.48.19,11.41-2.85,11.14-1.41-.12-6.43-7.9-10.14-12.55-2-2.52-5.81-3.77-6.47-1.51-.41,1.42-1.94,1.67-3.84,2.92s-.83,9.14-.79,11.23c0,2.61-1,3.4,3.33,8,3.29,3.52,17.67,12.3,17.67,12.3l6.35,4.1a7,7,0,0,0,8.9.21Z" transform="translate(-110.38 -40)"/><path class="cls-3" d="M1010.5,539.47s59.31,53.39,73.23,57.85,53.71-72.9,60.84-80.88c11.8-13.21,37.28.41,32.88,24.88-5.55,30.87-84.07,90.34-93.72,91.19s-83.35-81.45-83.35-81.45C1001.13,547.29,1004.62,543.42,1010.5,539.47Z" transform="translate(-110.38 -40)"/><path class="cls-6" d="M656.53,202.78l3,8.7a2.93,2.93,0,0,0,2,1.85l9.32,2.64a2.76,2.76,0,0,1,.89,5l-7.91,5.33a2.78,2.78,0,0,0-1.25,2.36l.2,9.13a3,3,0,0,1-4.8,2.33l-7.86-5.4a3.15,3.15,0,0,0-2.77-.39l-9.2,3a2.92,2.92,0,0,1-3.85-3.55l3-8.67a2.67,2.67,0,0,0-.46-2.6L631,215.22a2.82,2.82,0,0,1,2.42-4.53l9.74,0a3.05,3.05,0,0,0,2.49-1.21l5.56-7.49A3.1,3.1,0,0,1,656.53,202.78Z" transform="translate(-110.38 -40)"/><path class="cls-6" d="M650.82,188.76h0a37.49,37.49,0,0,1,5.18.37,34.49,34.49,0,0,1,23.21,13.56,30.53,30.53,0,0,1,5.72,23.13,31.78,31.78,0,0,1-11.67,19.71,36.16,36.16,0,0,1-27.53,7.38,34.49,34.49,0,0,1-23.21-13.56,30.55,30.55,0,0,1-5.72-23.12,31.78,31.78,0,0,1,11.67-19.72,35.93,35.93,0,0,1,22.35-7.75m0-.73c-17.11,0-32.11,11.73-34.74,28.08-2.89,18,10.34,34.81,29.55,37.53a37.81,37.81,0,0,0,5.28.37c17.11,0,32.12-11.73,34.74-28.08,2.89-18-10.34-34.81-29.55-37.52a36.37,36.37,0,0,0-5.28-.38Z" transform="translate(-110.38 -40)"/><path class="cls-18" d="M1272,1040H167.8a6.61,6.61,0,0,1-6.81-6.38h0a6.6,6.6,0,0,1,6.81-6.38H1272a6.6,6.6,0,0,1,6.81,6.38h0A6.61,6.61,0,0,1,1272,1040Z" transform="translate(-110.38 -40)"/></g></g></svg>